<svg width="270" height="47" viewBox="0 0 270 47" fill="none" xmlns="http://www.w3.org/2000/svg">
<g opacity="0.8">
<path d="M42.3872 6.43994H11.6128C11.4847 6.43994 11.3562 6.43994 11.2283 6.44062C11.1202 6.44153 11.0124 6.44266 10.9044 6.4456C10.6691 6.45195 10.4317 6.46599 10.1993 6.50766C9.96627 6.54759 9.74048 6.62202 9.52936 6.72849C9.10496 6.94435 8.76 7.28932 8.54413 7.71372C8.43747 7.92491 8.36303 8.15089 8.32331 8.38413C8.28118 8.61674 8.26736 8.85387 8.26102 9.08897C8.25826 9.19691 8.2566 9.30487 8.25604 9.41285C8.25558 9.54059 8.25558 9.66878 8.25558 9.7972V27.0825C8.25558 27.2109 8.25558 27.3388 8.25604 27.4673C8.25672 27.5751 8.25808 27.6831 8.26102 27.7911C8.26736 28.0258 8.2814 28.2631 8.32331 28.4955C8.36295 28.7288 8.43731 28.9547 8.54391 29.1659C8.65108 29.3769 8.79097 29.5695 8.95838 29.7367C9.12551 29.9042 9.31816 30.0441 9.52914 30.1512C9.74362 30.2606 9.96332 30.3301 10.1995 30.3724C10.4317 30.4139 10.6691 30.4279 10.9044 30.4343C11.0124 30.4368 11.1202 30.4381 11.2283 30.4388C11.3562 30.4397 11.4847 30.4397 11.6128 30.4397H42.3872C42.5151 30.4397 42.6435 30.4397 42.7715 30.4388C42.8793 30.4384 42.9871 30.4368 43.0956 30.4343C43.3305 30.4279 43.5678 30.4139 43.8007 30.3724C44.0338 30.3325 44.2596 30.2579 44.4706 30.1512C44.8948 29.935 45.2397 29.5901 45.4559 29.1659C45.5653 28.9514 45.6346 28.7318 45.6765 28.4955C45.7186 28.2631 45.7322 28.0258 45.7385 27.7911C45.7415 27.6831 45.7431 27.5751 45.7435 27.4673C45.7444 27.3388 45.7444 27.2109 45.7444 27.0825V9.79743C45.7444 9.66901 45.7444 9.54081 45.7435 9.41262C45.7431 9.30472 45.7414 9.19683 45.7385 9.08897C45.7322 8.85387 45.7186 8.61674 45.6765 8.38413C45.637 8.15085 45.5627 7.92484 45.4559 7.71372C45.2399 7.28939 44.895 6.94445 44.4706 6.72849C44.2595 6.62213 44.0337 6.54778 43.8007 6.50789C43.5678 6.46599 43.3305 6.45217 43.0956 6.44583C42.9876 6.44309 42.8796 6.44143 42.7715 6.44085C42.6435 6.43994 42.5151 6.43994 42.3872 6.43994Z" fill="black"/>
<path d="M42.3871 7.23975L42.7658 7.24043C42.8682 7.24111 42.9708 7.24224 43.0739 7.24496C43.2535 7.24994 43.4632 7.25968 43.6589 7.29478C43.8288 7.32536 43.9714 7.37179 44.1082 7.44155C44.382 7.58074 44.6044 7.80339 44.7433 8.07731C44.8126 8.2132 44.8588 8.35498 44.8894 8.52644C44.9243 8.71986 44.934 8.93027 44.9388 9.11078C44.9417 9.2127 44.9431 9.31462 44.9433 9.41881C44.9444 9.54496 44.9444 9.67089 44.9444 9.79727V27.0825C44.9444 27.2089 44.9444 27.3348 44.9435 27.4635C44.9431 27.5654 44.9417 27.6673 44.939 27.7692C44.934 27.9495 44.9243 28.1599 44.889 28.3556C44.8633 28.5113 44.814 28.6621 44.7429 28.8029C44.6037 29.077 44.3809 29.2996 44.1069 29.4387C43.971 29.508 43.8288 29.5544 43.6605 29.5848C43.4609 29.6203 43.2421 29.6301 43.0775 29.6346C42.974 29.6369 42.8709 29.6385 42.7652 29.6389C42.6395 29.6398 42.5131 29.6398 42.3871 29.6398H11.6079C11.4833 29.6398 11.3587 29.6398 11.2319 29.6389C11.13 29.6385 11.028 29.6371 10.9261 29.6348C10.7576 29.6303 10.5388 29.6203 10.3409 29.585C10.1844 29.5589 10.0327 29.5093 9.89106 29.4378C9.7552 29.3688 9.63119 29.2786 9.5237 29.1705C9.41587 29.0629 9.32581 28.9388 9.25689 28.8029C9.18572 28.6613 9.13639 28.5097 9.11058 28.3534C9.07525 28.1579 9.06528 27.9484 9.06075 27.7695C9.05819 27.6672 9.05668 27.5649 9.05622 27.4626L9.05554 27.162V9.718L9.05599 9.4179C9.05646 9.31544 9.05797 9.21298 9.06052 9.11055C9.06551 8.93117 9.07525 8.72167 9.11081 8.52462C9.13666 8.36854 9.18599 8.21727 9.25712 8.07595C9.32597 7.94051 9.41566 7.81684 9.52438 7.70835C9.63213 7.60043 9.75627 7.51023 9.8922 7.4411C10.0335 7.37011 10.1847 7.32079 10.3406 7.29478C10.5366 7.25968 10.7465 7.24994 10.9263 7.24496C11.0287 7.24224 11.1313 7.24111 11.233 7.24043L11.6128 7.23975H42.3871Z" fill="white"/>
<path d="M18.1097 14.5417C18.4277 14.1442 18.6433 13.6103 18.5865 13.0649C18.1212 13.088 17.5537 13.3718 17.2248 13.7698C16.9297 14.1104 16.6685 14.6665 16.7365 15.189C17.2588 15.2343 17.7806 14.928 18.1097 14.5417Z" fill="black"/>
<path d="M18.5806 15.2911C17.8218 15.2458 17.1772 15.7215 16.8151 15.7215C16.4527 15.7215 15.898 15.3138 15.2981 15.3249C14.5173 15.3362 13.793 15.7779 13.3967 16.48C12.5818 17.8842 13.1815 19.9679 13.9742 21.1117C14.359 21.6779 14.8229 22.3008 15.434 22.2783C16.0115 22.2557 16.2378 21.9046 16.9394 21.9046C17.6409 21.9046 17.8447 22.2783 18.456 22.267C19.0897 22.2557 19.4861 21.7008 19.8709 21.1346C20.3125 20.4891 20.4931 19.8662 20.5044 19.8323C20.4931 19.8209 19.2822 19.3564 19.2709 17.9635C19.2596 16.7971 20.2217 16.2422 20.267 16.208C19.7237 15.4044 18.8748 15.3138 18.5803 15.2911" fill="black"/>
<path d="M26.1422 13.7129C27.7906 13.7129 28.9386 14.8492 28.9386 16.5035C28.9386 18.1636 27.767 19.3058 26.1009 19.3058H24.2759V22.2085H22.9573V13.7129H26.1422ZM24.2759 18.199H25.7888C26.9371 18.199 27.5903 17.5809 27.5903 16.5094C27.5903 15.4381 26.9369 14.8256 25.7947 14.8256H24.2759V18.199Z" fill="black"/>
<path d="M29.2657 20.448C29.2657 19.3588 30.0958 18.7348 31.6264 18.6406L33.2689 18.5405V18.0694C33.2689 17.3808 32.8157 17.004 32.0092 17.004C31.3437 17.004 30.8609 17.3453 30.7612 17.8692H29.5717C29.6072 16.7684 30.6432 15.9678 32.0445 15.9678C33.5516 15.9678 34.5347 16.7566 34.5347 17.9813V22.2082H33.3162V21.1897H33.2868C32.9394 21.8549 32.1738 22.2728 31.3437 22.2728C30.1193 22.2728 29.2657 21.543 29.2657 20.448ZM33.2689 19.9005V19.4236L31.8031 19.5178C30.9786 19.5708 30.5492 19.8768 30.5492 20.4124C30.5492 20.9306 30.9965 21.2663 31.6971 21.2663C32.5917 21.2663 33.2689 20.6951 33.2689 19.9005Z" fill="black"/>
<path d="M35.6552 24.4807V23.4624C35.7376 23.474 35.9376 23.4858 36.0436 23.4858C36.6264 23.4858 36.9561 23.2389 37.1564 22.6027L37.2741 22.226L35.0428 16.0444H36.4203L37.9747 21.0603H38.0041L39.5583 16.0444H40.9007L38.5869 22.5379C38.0569 24.0275 37.4506 24.5163 36.1673 24.5163C36.0672 24.5163 35.7433 24.5045 35.6552 24.4807Z" fill="black"/>
</g>
<g opacity="0.8">
<path opacity="0.07" d="M97 6.43994H65C63.3 6.43994 62 7.73994 62 9.43994V27.4399C62 29.1399 63.4 30.4399 65 30.4399H97C98.7 30.4399 100 29.1399 100 27.4399V9.43994C100 7.73994 98.6 6.43994 97 6.43994Z" fill="black"/>
<path d="M97 7.43994C98.1 7.43994 99 8.33994 99 9.43994V27.4399C99 28.5399 98.1 29.4399 97 29.4399H65C63.9 29.4399 63 28.5399 63 27.4399V9.43994C63 8.33994 63.9 7.43994 65 7.43994H97Z" fill="white"/>
<path d="M80.093 18.4162V21.6162H79.075V13.7162H81.766C82.0884 13.7107 82.4088 13.769 82.7086 13.8878C83.0084 14.0066 83.2818 14.1834 83.513 14.4082C83.732 14.6126 83.9086 14.8581 84.0327 15.1308C84.1568 15.4035 84.2259 15.698 84.2361 15.9974C84.2464 16.2968 84.1975 16.5953 84.0923 16.8758C83.987 17.1563 83.8276 17.4133 83.623 17.6322L83.513 17.7482C83.043 18.1952 82.415 18.4382 81.766 18.4222L80.093 18.4162ZM80.093 14.6842V17.4722H81.791C82.168 17.4842 82.532 17.3372 82.796 17.0682C82.9848 16.8713 83.1116 16.6233 83.1606 16.355C83.2096 16.0867 83.1786 15.8099 83.0715 15.559C82.9644 15.3081 82.7859 15.0943 82.5583 14.9441C82.3306 14.7939 82.0638 14.7139 81.791 14.7142L80.093 14.6842ZM86.577 16.0322C87.227 16.0022 87.863 16.2202 88.355 16.6452C88.8 17.0752 89.037 17.6752 89.005 18.2942V21.6282H88.036V20.8622H87.987C87.8132 21.1495 87.5675 21.3865 87.2741 21.5497C86.9807 21.713 86.6497 21.7969 86.314 21.7932C85.7659 21.8109 85.2314 21.6205 84.818 21.2602C84.6221 21.1004 84.4652 20.8982 84.359 20.6688C84.2528 20.4394 84.2001 20.1889 84.205 19.9362C84.1935 19.6808 84.2431 19.4263 84.3497 19.1939C84.4563 18.9615 84.6169 18.758 84.818 18.6002C85.3114 18.2453 85.9086 18.0642 86.516 18.0852C87.033 18.0652 87.546 18.1782 88.006 18.4162V18.2082C88.0094 18.0362 87.9736 17.8657 87.9013 17.7096C87.8291 17.5535 87.7223 17.4159 87.589 17.3072C87.3213 17.0638 86.9707 16.9322 86.609 16.9392C86.3463 16.9367 86.0873 17.0012 85.8566 17.1267C85.6258 17.2522 85.4308 17.4344 85.29 17.6562L84.395 17.0922C84.638 16.744 84.9661 16.4638 85.3481 16.2782C85.73 16.0927 86.1531 16.008 86.577 16.0322ZM85.29 19.9602C85.2876 20.0897 85.3171 20.2178 85.3758 20.3333C85.4346 20.4487 85.5209 20.5479 85.627 20.6222C85.85 20.7982 86.127 20.8912 86.412 20.8852C86.841 20.8842 87.252 20.7152 87.558 20.4132C87.863 20.1272 88.036 19.7282 88.036 19.3102C87.651 19.0365 87.1833 18.9043 86.712 18.9362C86.3461 18.9218 85.9852 19.0248 85.682 19.2302C85.5619 19.3105 85.4634 19.4191 85.3951 19.5463C85.3267 19.6736 85.2906 19.8157 85.29 19.9602ZM94.576 16.2102L91.186 24.0002H90.138L91.419 21.2722L89.195 16.2102H90.298L91.91 20.0952L93.479 16.2102H94.576Z" fill="#5F6368"/>
<path d="M75.986 17.7237C75.986 17.4157 75.962 17.1077 75.913 16.8037H71.623V18.5507H74.074C74.0241 18.8284 73.9187 19.0931 73.764 19.329C73.6094 19.5649 73.4087 19.7672 73.174 19.9237V21.0577H74.638C75.0831 20.627 75.4331 20.1078 75.6653 19.5335C75.8974 18.9593 76.0067 18.3428 75.986 17.7237Z" fill="#4285F4"/>
<path d="M71.629 22.1609C72.7353 22.1913 73.8116 21.799 74.639 21.0639L73.173 19.9239C72.8207 20.1497 72.4216 20.2923 72.006 20.3407C71.5904 20.3891 71.1692 20.3421 70.7745 20.2033C70.3798 20.0644 70.0219 19.8374 69.7281 19.5395C69.4343 19.2415 69.2123 18.8805 69.079 18.4839H67.577V19.6539C67.9528 20.4069 68.531 21.0404 69.2468 21.4832C69.9625 21.926 70.7874 22.1607 71.629 22.1609Z" fill="#34A853"/>
<path d="M69.079 18.49C68.8888 17.9273 68.8888 17.3177 69.079 16.755V15.585H67.577C67.2568 16.2164 67.0899 16.9145 67.0899 17.6225C67.0899 18.3305 67.2568 19.0285 67.577 19.66L69.079 18.49Z" fill="#FBBC04"/>
<path d="M71.629 14.8801C72.276 14.8683 72.9015 15.1127 73.369 15.5601L74.669 14.2671C73.8401 13.4891 72.7406 13.0648 71.604 13.0841C70.7674 13.0883 69.9482 13.3241 69.2374 13.7654C68.5266 14.2067 67.9519 14.8362 67.577 15.5841L69.079 16.7551C69.2546 16.2152 69.5951 15.7439 70.0525 15.4076C70.5099 15.0713 71.0613 14.8868 71.629 14.8801Z" fill="#EA4335"/>
</g>
<g opacity="0.8">
<path opacity="0.07" d="M151 6.43994H119C117.3 6.43994 116 7.73994 116 9.43994V27.4399C116 29.1399 117.4 30.4399 119 30.4399H151C152.7 30.4399 154 29.1399 154 27.4399V9.43994C154 7.73994 152.6 6.43994 151 6.43994Z" fill="black"/>
<path d="M151 7.43994C152.1 7.43994 153 8.33994 153 9.43994V27.4399C153 28.5399 152.1 29.4399 151 29.4399H119C117.9 29.4399 117 28.5399 117 27.4399V9.43994C117 8.33994 117.9 7.43994 119 7.43994H151Z" fill="white"/>
<path d="M131 25.4399C134.866 25.4399 138 22.3059 138 18.4399C138 14.5739 134.866 11.4399 131 11.4399C127.134 11.4399 124 14.5739 124 18.4399C124 22.3059 127.134 25.4399 131 25.4399Z" fill="#EB001B"/>
<path d="M139 25.4399C142.866 25.4399 146 22.3059 146 18.4399C146 14.5739 142.866 11.4399 139 11.4399C135.134 11.4399 132 14.5739 132 18.4399C132 22.3059 135.134 25.4399 139 25.4399Z" fill="#F79E1B"/>
<path d="M138 18.4397C138 16.0397 136.8 13.9397 135 12.7397C133.2 14.0397 132 16.1397 132 18.4397C132 20.7397 133.2 22.9397 135 24.1397C136.8 22.9397 138 20.8397 138 18.4397Z" fill="#FF5F00"/>
</g>
<g opacity="0.8">
<path opacity="0.07" d="M205 6.43994H173C171.3 6.43994 170 7.73994 170 9.43994V27.4399C170 29.1399 171.4 30.4399 173 30.4399H205C206.7 30.4399 208 29.1399 208 27.4399V9.43994C208 7.73994 206.6 6.43994 205 6.43994Z" fill="black"/>
<path d="M205 7.43994C206.1 7.43994 207 8.33994 207 9.43994V27.4399C207 28.5399 206.1 29.4399 205 29.4399H173C171.9 29.4399 171 28.5399 171 27.4399V9.43994C171 8.33994 171.9 7.43994 173 7.43994H205Z" fill="white"/>
<path d="M193.9 14.7399C194.1 13.7399 193.9 13.0399 193.3 12.4399C192.7 11.7399 191.6 11.4399 190.2 11.4399H186.1C185.8 11.4399 185.6 11.6399 185.5 11.9399L184 22.0399C184 22.2399 184.1 22.4399 184.3 22.4399H187L187.4 19.0399L189.2 16.8399L193.9 14.7399Z" fill="#003087"/>
<path d="M193.9 14.7397L193.7 14.9397C193.2 17.7397 191.5 18.7397 189.1 18.7397H188C187.7 18.7397 187.5 18.9397 187.4 19.2397L186.8 23.1397L186.6 24.1397C186.6 24.3397 186.7 24.5397 186.9 24.5397H189C189.3 24.5397 189.5 24.3397 189.5 24.1397V24.0397L189.9 21.6397V21.5397C189.9 21.3397 190.2 21.1397 190.4 21.1397H190.7C192.8 21.1397 194.4 20.3397 194.8 17.9397C195 16.9397 194.9 16.1397 194.4 15.5397C194.3 15.0397 194.1 14.8397 193.9 14.7397Z" fill="#3086C8"/>
<path d="M193.3 14.5397C193.2 14.4397 193.1 14.4397 193 14.4397C192.9 14.4397 192.8 14.4397 192.7 14.3397C192.4 14.2397 192 14.2397 191.6 14.2397H188.6C188.5 14.2397 188.4 14.2397 188.4 14.3397C188.2 14.4397 188.1 14.5397 188.1 14.7397L187.4 19.1397V19.2397C187.4 18.9397 187.7 18.7397 188 18.7397H189.3C191.8 18.7397 193.4 17.7397 193.9 14.9397V14.7397C193.8 14.6397 193.6 14.5397 193.4 14.5397H193.3Z" fill="#012169"/>
</g>
<g opacity="0.8">
<path opacity="0.07" d="M259 6.43994H227C225.3 6.43994 224 7.73994 224 9.43994V27.4399C224 29.1399 225.4 30.4399 227 30.4399H259C260.7 30.4399 262 29.1399 262 27.4399V9.43994C262 7.73994 260.6 6.43994 259 6.43994Z" fill="black"/>
<path d="M259 7.43994C260.1 7.43994 261 8.33994 261 9.43994V27.4399C261 28.5399 260.1 29.4399 259 29.4399H227C225.9 29.4399 225 28.5399 225 27.4399V9.43994C225 8.33994 225.9 7.43994 227 7.43994H259Z" fill="white"/>
<path d="M252.3 16.5399H252C251.6 17.5399 251.3 18.0399 251 19.5399H252.9C252.6 18.0399 252.6 17.3399 252.3 16.5399ZM255.2 22.4399H253.5C253.4 22.4399 253.4 22.4399 253.3 22.3399L253.1 21.4399L253 21.2399H250.6C250.5 21.2399 250.4 21.2399 250.4 21.4399L250.1 22.3399C250.1 22.4399 250 22.4399 250 22.4399H247.9L248.1 21.9399L251 15.1399C251 14.6399 251.3 14.4399 251.8 14.4399H253.3C253.4 14.4399 253.5 14.4399 253.5 14.6399L254.9 21.1399C255 21.5399 255.1 21.8399 255.1 22.2399C255.2 22.3399 255.2 22.3399 255.2 22.4399ZM241.8 22.1399L242.2 20.3399C242.3 20.3399 242.4 20.4399 242.4 20.4399C243.1 20.7399 243.8 20.9399 244.5 20.8399C244.7 20.8399 245 20.7399 245.2 20.6399C245.7 20.4399 245.7 19.9399 245.3 19.5399C245.1 19.3399 244.8 19.2399 244.5 19.0399C244.1 18.8399 243.7 18.6399 243.4 18.3399C242.2 17.3399 242.6 15.9399 243.3 15.2399C243.9 14.8399 244.2 14.4399 245 14.4399C246.2 14.4399 247.5 14.4399 248.1 14.6399H248.2C248.1 15.2399 248 15.7399 247.8 16.3399C247.3 16.1399 246.8 15.9399 246.3 15.9399C246 15.9399 245.7 15.9399 245.4 16.0399C245.2 16.0399 245.1 16.1399 245 16.2399C244.8 16.4399 244.8 16.7399 245 16.9399L245.5 17.3399C245.9 17.5399 246.3 17.7399 246.6 17.9399C247.1 18.2399 247.6 18.7399 247.7 19.3399C247.9 20.2399 247.6 21.0399 246.8 21.6399C246.3 22.0399 246.1 22.2399 245.4 22.2399C244 22.2399 242.9 22.3399 242 22.0399C241.9 22.2399 241.9 22.2399 241.8 22.1399ZM238.3 22.4399C238.4 21.7399 238.4 21.7399 238.5 21.4399C239 19.2399 239.5 16.9399 239.9 14.7399C240 14.5399 240 14.4399 240.2 14.4399H242C241.8 15.6399 241.6 16.5399 241.3 17.6399C241 19.1399 240.7 20.6399 240.3 22.1399C240.3 22.3399 240.2 22.3399 240 22.3399M229 14.6399C229 14.5399 229.2 14.4399 229.3 14.4399H232.7C233.2 14.4399 233.6 14.7399 233.7 15.2399L234.6 19.6399C234.6 19.7399 234.6 19.7399 234.7 19.8399C234.7 19.7399 234.8 19.7399 234.8 19.7399L236.9 14.6399C236.8 14.5399 236.9 14.4399 237 14.4399H239.1C239.1 14.5399 239.1 14.5399 239 14.6399L235.9 21.9399C235.8 22.1399 235.8 22.2399 235.7 22.3399C235.6 22.4399 235.4 22.3399 235.2 22.3399H233.7C233.6 22.3399 233.5 22.3399 233.5 22.1399L231.9 15.9399C231.7 15.7399 231.4 15.4399 231 15.3399C230.4 15.0399 229.3 14.8399 229.1 14.8399L229 14.6399Z" fill="#142688"/>
</g>
</svg>
