<svg width="64" height="65" viewBox="0 0 64 65" fill="none" xmlns="http://www.w3.org/2000/svg">
<mask id="mask0_174_2197" style="mask-type:luminance" maskUnits="userSpaceOnUse" x="0" y="0" width="64" height="65">
<path d="M0.161621 0.651245H63.8284V64.318H0.161621V0.651245Z" fill="white"/>
</mask>
<g mask="url(#mask0_174_2197)">
<path d="M44.615 19.0275C44.1202 16.1394 41.3777 14.1994 38.4895 14.6943C35.6015 15.1892 33.6614 17.9316 34.1565 20.8197L34.3769 22.1066C34.8717 24.9948 37.6142 26.9347 40.5024 26.4398C43.3904 25.9449 45.3305 23.2025 44.8354 20.3144L44.615 19.0275Z" stroke="#626463" stroke-width="2.51151" stroke-miterlimit="10" stroke-linecap="round" stroke-linejoin="round"/>
<path d="M34.1074 19.3877L38.065 18.7095C39.0229 18.5454 39.9327 19.1889 40.0968 20.1468C40.1692 20.5692 40.3931 20.9507 40.7268 21.2196L44.1368 23.9685" stroke="#626463" stroke-width="2.51151" stroke-miterlimit="10" stroke-linecap="round" stroke-linejoin="round"/>
<path d="M43.8395 17.0392C44.4392 16.978 45.0104 16.6699 45.3859 16.1391C46.0752 15.1647 45.844 13.8162 44.8696 13.1269C43.8952 12.4376 42.5467 12.6687 41.8574 13.6431C41.5571 14.0675 41.4319 14.5629 41.4662 15.044" stroke="#626463" stroke-width="2.51151" stroke-miterlimit="10" stroke-linecap="round" stroke-linejoin="round"/>
<path d="M37.9796 26.2602C34.1479 31.3624 38.9373 35.6007 34.3939 40.451" stroke="#626463" stroke-width="2.51151" stroke-miterlimit="10" stroke-linecap="round" stroke-linejoin="round"/>
<path d="M47.5779 36.0809C47.9337 34.6514 48.1182 33.0569 48.0216 31.2875C47.88 28.6911 46.1439 26.4544 43.6638 25.673C43.3881 25.5861 43.1129 25.4994 42.8433 25.4143" stroke="#626463" stroke-width="2.51151" stroke-miterlimit="10" stroke-linecap="round" stroke-linejoin="round"/>
<path d="M42.7213 44.6183C43.483 43.6852 44.7042 42.3101 45.7856 40.4484" stroke="#626463" stroke-width="2.51151" stroke-miterlimit="10" stroke-linecap="round" stroke-linejoin="round"/>
<path d="M22.7911 38.6839C24.1092 39.9271 25.5255 41.3601 27.034 43.0523C27.7402 43.8444 28.4053 44.672 29.0268 45.5322L31.4841 48.933" stroke="#626463" stroke-width="2.51151" stroke-miterlimit="10" stroke-linecap="round" stroke-linejoin="round"/>
<path d="M39.5685 48.933L42.7213 44.6183L41.8814 44.4865C38.4673 43.9506 36.3911 43.2715 34.3939 40.451C27.2317 34.5375 21.5249 32.092 17.9452 30.0011L15.5718 32.4825C16.7005 33.4658 18.0273 34.5145 19.5371 35.7894" stroke="#626463" stroke-width="2.51151" stroke-miterlimit="10" stroke-linecap="round" stroke-linejoin="round"/>
<path d="M17.9453 30.0012L16.4788 28.6918C15.7607 28.0505 15.1212 27.3264 14.5737 26.5347L12.8848 24.0926C12.6144 23.7018 12.1287 23.5217 11.6689 23.6418L11.6458 23.6479C11.0578 23.8017 10.691 24.3793 10.8012 24.9727L11.6547 29.5707C11.8009 30.3585 12.3671 31.0032 13.1295 31.2499L13.9322 31.5095C14.5096 31.6965 15.0412 32.0034 15.4919 32.4103L15.5717 32.4824" stroke="#626463" stroke-width="2.51151" stroke-miterlimit="10" stroke-linecap="round" stroke-linejoin="round"/>
<path d="M49.882 45.8004L52.2797 48.933" stroke="#626463" stroke-width="2.51151" stroke-miterlimit="10" stroke-linecap="round" stroke-linejoin="round"/>
<path d="M53.144 48.933C53.1963 48.8432 53.221 48.7333 53.2019 48.6093L52.891 46.6028C52.6197 44.8527 51.9972 43.1755 51.0607 41.6721L44.5151 31.164C43.7374 30.1478 42.283 29.9546 41.2668 30.7324C40.2507 31.5101 40.0575 32.9644 40.8352 33.9805L47.2315 42.3375" stroke="#626463" stroke-width="2.51151" stroke-miterlimit="10" stroke-linecap="round" stroke-linejoin="round"/>
<path d="M61.2425 52.2394H2.74746C1.83436 52.2394 1.09424 51.4993 1.09424 50.5862C1.09424 49.6731 1.83436 48.9329 2.74746 48.9329H61.2425C62.1556 48.9329 62.8958 49.6731 62.8958 50.5862C62.8958 51.4993 62.1556 52.2394 61.2425 52.2394Z" stroke="#626463" stroke-width="2.51151" stroke-miterlimit="10" stroke-linecap="round" stroke-linejoin="round"/>
</g>
</svg>
