<svg width="50" height="51" viewBox="0 0 50 51" fill="none" xmlns="http://www.w3.org/2000/svg">
<g clip-path="url(#clip0_174_2233)">
<mask id="mask0_174_2233" style="mask-type:luminance" maskUnits="userSpaceOnUse" x="-1" y="0" width="51" height="51">
<path d="M-0.00500488 0.484688H49.9949V50.4846H-0.00500488V0.484688Z" fill="white"/>
</mask>
<g mask="url(#mask0_174_2233)">
<path d="M23.6095 8.01022H26.3804V3.98796H23.6095V2.12361C23.6095 1.62292 23.2037 1.21697 22.7029 1.21697H20.4939C19.9932 1.21697 19.5873 1.62292 19.5873 2.12361V3.98796H15.5651V2.12361C15.5651 1.62292 15.1591 1.21697 14.6585 1.21697H12.4494C11.9487 1.21697 11.5428 1.62292 11.5428 2.12361V3.98796H7.52057V2.12361C7.52057 1.62292 7.11471 1.21697 6.61393 1.21697H4.40495C3.90427 1.21697 3.49831 1.62292 3.49831 2.12361V3.98796V8.01022H1.63406C1.13328 8.01022 0.727417 8.41608 0.727417 8.91676V11.1257C0.727417 11.6264 1.13328 12.0325 1.63406 12.0325H3.49831V16.0546H1.63406C1.13328 16.0546 0.727417 16.4605 0.727417 16.9612V19.1703C0.727417 19.6709 1.13328 20.0769 1.63406 20.0769H3.49831V24.0991H7.52057V26.8701H11.5428V24.0991H15.5651V26.8701H19.5873V24.0991H23.6095V26.8701H26.3804V20.0769H23.6095V16.0546H26.3804V12.0325H23.6095" stroke="#626463" stroke-width="2" stroke-miterlimit="10" stroke-linecap="round" stroke-linejoin="round"/>
<path d="M23.6095 11.4003V12.0325H26.3804V16.0546H23.6095V20.0769H26.3804V24.0991H30.4027V26.8701H34.4249V24.0991H38.4471V26.8701H42.4693V24.0991H46.4916H48.3559C48.8566 24.0991 49.2625 23.6932 49.2625 23.1925V20.9834C49.2625 20.4828 48.8566 20.0769 48.3559 20.0769H46.4916V16.0546H48.3559C48.8566 16.0546 49.2625 15.6488 49.2625 15.1481V12.939C49.2625 12.4383 48.8566 12.0325 48.3559 12.0325H46.4916V8.01022H48.3559C48.8566 8.01022 49.2625 7.60426 49.2625 7.10358V4.8946C49.2625 4.39382 48.8566 3.98796 48.3559 3.98796H46.4916V2.1236C46.4916 1.62292 46.0856 1.21706 45.585 1.21706H43.376C42.8752 1.21706 42.4693 1.62292 42.4693 2.1236V3.98796H38.4471V2.1236C38.4471 1.62292 38.0412 1.21706 37.5405 1.21706H35.3315C34.8308 1.21706 34.4249 1.62292 34.4249 2.1236V3.98796H30.4027V2.1236C30.4027 1.62292 29.9967 1.21706 29.496 1.21706H27.287C26.7863 1.21706 26.3804 1.62292 26.3804 2.1236V3.98796V8.01022H23.6095" stroke="#626463" stroke-width="2" stroke-miterlimit="10" stroke-linecap="round" stroke-linejoin="round"/>
<path d="M26.3804 46.9813V42.959H23.6095V38.9368H26.3804V34.9146H23.6095V30.8924H26.3804V26.8702H23.6095V24.0992H19.5873V26.8702H15.565V24.0992H11.5428V26.8702H7.52057V24.0992H3.49831V26.8702V30.8924H1.63406C1.13328 30.8924 0.727417 31.2982 0.727417 31.7989V34.008C0.727417 34.5087 1.13328 34.9146 1.63406 34.9146H3.49831V38.9368H1.63406C1.13328 38.9368 0.727417 39.3426 0.727417 39.8434V42.0524C0.727417 42.5531 1.13328 42.959 1.63406 42.959H3.49831V46.9813H7.52057V48.8457C7.52057 49.3463 7.92643 49.7522 8.42721 49.7522H10.6362C11.1369 49.7522 11.5428 49.3463 11.5428 48.8457V46.9813H15.565V48.8457C15.565 49.3463 15.971 49.7522 16.4716 49.7522H18.6807C19.1814 49.7522 19.5873 49.3463 19.5873 48.8457V46.9813H22.9533" stroke="#626463" stroke-width="2" stroke-miterlimit="10" stroke-linecap="round" stroke-linejoin="round"/>
<path d="M45.9057 46.9813H48.3559C48.8566 46.9813 49.2625 46.5754 49.2625 46.0747V43.8657C49.2625 43.365 48.8566 42.959 48.3559 42.959H46.4916V38.9368H48.3559C48.8566 38.9368 49.2625 38.5309 49.2625 38.0302V35.8212C49.2625 35.3205 48.8566 34.9146 48.3559 34.9146H46.4916V30.8924H48.3559C48.8566 30.8924 49.2625 30.4865 49.2625 29.9857V27.7767C49.2625 27.2761 48.8566 26.8702 48.3559 26.8702H46.4916V24.0992H42.4693V26.8702H38.4472V24.0992H34.4249V26.8702H30.4027V24.0992H26.3804V26.8702V30.8924H23.6095V34.9146H26.3804V38.9368H23.6095V42.959H26.3804V46.9813H30.4027V48.8457C30.4027 49.3463 30.8085 49.7522 31.3093 49.7522H33.5183C34.019 49.7522 34.4249 49.3463 34.4249 48.8457V46.9813H38.4472V48.8457C38.4472 49.3463 38.853 49.7522 39.3537 49.7522H41.5627C42.0635 49.7522 42.4693 49.3463 42.4693 48.8457V46.9813" stroke="#626463" stroke-width="2" stroke-miterlimit="10" stroke-linecap="round" stroke-linejoin="round"/>
<path d="M38.6342 10.6704L36.436 11.5118L34.2378 10.6704C32.9153 10.1643 31.4417 10.8901 31.0369 12.2472L31.0179 12.3105C30.7528 13.1995 31.0163 14.162 31.6974 14.7919L35.0925 17.9319C35.8509 18.6333 37.0211 18.6333 37.7795 17.9319L41.1746 14.7919C41.8557 14.162 42.1192 13.1995 41.8541 12.3105L41.8351 12.2472C41.4303 10.8901 39.9567 10.1643 38.6342 10.6704Z" stroke="#626463" stroke-width="2" stroke-miterlimit="10" stroke-linecap="round" stroke-linejoin="round"/>
<path d="M37.1391 40.5915L38.1686 41.1327C39.0829 41.6134 40.1517 40.837 39.9771 39.8187L39.7805 38.6724C39.711 38.268 39.8451 37.8554 40.1389 37.5691L40.9718 36.7572C41.7115 36.0362 41.3033 34.7797 40.281 34.6312L39.13 34.464C38.724 34.4049 38.3731 34.15 38.1915 33.7821L37.6768 32.7392C37.2195 31.8128 35.8985 31.8128 35.4413 32.7392L34.9266 33.7821C34.745 34.15 34.3942 34.4049 33.9881 34.464L32.8371 34.6312C31.8148 34.7797 31.4066 36.0362 32.1464 36.7572L32.9792 37.5691C33.273 37.8554 33.407 38.268 33.3377 38.6724L33.1411 39.8187C32.9664 40.837 34.0352 41.6134 34.9496 41.1327L35.979 40.5915C36.3422 40.4005 36.776 40.4005 37.1391 40.5915Z" stroke="#626463" stroke-width="2" stroke-miterlimit="10" stroke-linecap="round" stroke-linejoin="round"/>
<path d="M15.2021 32.1724C17.0659 32.8476 18.3977 34.6335 18.3977 36.7303C18.3977 39.4069 16.2279 41.5767 13.5513 41.5767C10.8748 41.5767 8.70505 39.4069 8.70505 36.7303C8.70505 34.6626 9.99997 32.8972 11.8232 32.2012" stroke="#626463" stroke-width="2" stroke-miterlimit="10" stroke-linecap="round" stroke-linejoin="round"/>
<path d="M17.9149 15.0933L16.435 14.2389L17.9149 13.3844C18.3765 13.1179 18.5347 12.5277 18.2682 12.0661L17.7962 11.2484C17.5296 10.7867 16.9393 10.6286 16.4777 10.8951L14.9977 11.7496V10.0407C14.9977 9.50767 14.5656 9.07554 14.0326 9.07554H13.0884C12.5554 9.07554 12.1232 9.50767 12.1232 10.0407V11.7496L10.6433 10.8951C10.1817 10.6286 9.59148 10.7867 9.32487 11.2484L8.8528 12.0661C8.5863 12.5277 8.7445 13.1179 9.20612 13.3844L10.686 14.2389L9.20612 15.0933C8.7445 15.3598 8.5863 15.95 8.8528 16.4118L9.32487 17.2294C9.59148 17.6911 10.1817 17.8493 10.6433 17.5827L12.1232 16.7283V18.4371C12.1232 18.9702 12.5554 19.4023 13.0884 19.4023H14.0326C14.5656 19.4023 14.9977 18.9702 14.9977 18.4371V16.7283L16.4777 17.5827C16.9393 17.8493 17.5296 17.6911 17.7962 17.2294L18.2682 16.4118C18.5347 15.95 18.3765 15.3598 17.9149 15.0933Z" stroke="#626463" stroke-width="2" stroke-miterlimit="10" stroke-linecap="round" stroke-linejoin="round"/>
</g>
</g>
<defs>
<clipPath id="clip0_174_2233">
<rect width="49.9999" height="49.9999" fill="white" transform="translate(-0.00500488 0.484619)"/>
</clipPath>
</defs>
</svg>
